<svg width="180" height="180" viewBox="0 0 180 180" fill="none" xmlns="http://www.w3.org/2000/svg">
<path d="M80.584 101.624L87.368 81.4C87.9653 79.6933 88.4773 78.0293 88.904 76.408C89.416 74.7013 89.7573 73.2933 89.928 72.184C90.0987 73.2933 90.44 74.7013 90.952 76.408C91.464 78.1147 91.976 79.7787 92.488 81.4L99.272 101.624H80.584Z" fill="#EB5939"/>
<path fill-rule="evenodd" clip-rule="evenodd" d="M90 0C40.2944 0 0 40.2944 0 90C0 139.706 40.2944 180 90 180C139.706 180 180 139.706 180 90C180 40.2944 139.706 0 90 0ZM46.152 139H67.784L74.568 119.032H105.16L111.816 139H133.832L100.168 44.28H79.944L46.152 139Z" fill="#EB5939"/>
</svg>
